<svg width="192" height="44" viewBox="0 0 192 44" fill="none" xmlns="http://www.w3.org/2000/svg">
<path d="M10.944 38.5001L13.9231 25.6209L3.93146 16.9584L17.1315 15.8126L22.2648 3.66675L27.3981 15.8126L40.5981 16.9584L30.6065 25.6209L33.5856 38.5001L22.2648 31.6709L10.944 38.5001Z" fill="#A41118"/>
<path d="M47.944 38.5001L50.9231 25.6209L40.9315 16.9584L54.1315 15.8126L59.2648 3.66675L64.3981 15.8126L77.5981 16.9584L67.6065 25.6209L70.5856 38.5001L59.2648 31.6709L47.944 38.5001Z" fill="#A41118"/>
<path d="M84.944 38.5001L87.9231 25.6209L77.9315 16.9584L91.1315 15.8126L96.2648 3.66675L101.398 15.8126L114.598 16.9584L104.606 25.6209L107.586 38.5001L96.2648 31.6709L84.944 38.5001Z" fill="#A41118"/>
<path d="M121.944 38.5001L124.923 25.6209L114.931 16.9584L128.131 15.8126L133.265 3.66675L138.398 15.8126L151.598 16.9584L141.606 25.6209L144.586 38.5001L133.265 31.6709L121.944 38.5001Z" fill="#A41118"/>
<path d="M163.96 30.8459L169.735 27.3626L175.51 30.8917L173.998 24.2917L179.085 19.8917L172.394 19.2959L169.735 13.0626L167.077 19.2501L160.385 19.8459L165.473 24.2917L163.96 30.8459ZM158.414 38.5001L161.394 25.6209L151.402 16.9584L164.602 15.8126L169.735 3.66675L174.869 15.8126L188.069 16.9584L178.077 25.6209L181.056 38.5001L169.735 31.6709L158.414 38.5001Z" fill="#F6F6F6"/>
</svg>
